<svg width="24" height="24" fill="none" xmlns="http://www.w3.org/2000/svg"><g filter="url(#a)"><mask id="b" fill="#fff"><path fill-rule="evenodd" clip-rule="evenodd" d="M10.5 11.05a4.5 4.5 0 1 0 0-9 4.5 4.5 0 0 0 0 9zm-2 1.45a6 6 0 0 0-6 6V21a1 1 0 0 0 1 1h14a1 1 0 0 0 1-1v-2.5a6 6 0 0 0-6-6l-2 2.88-2-2.88z"/></mask><path d="m8.5 12.5 1.396-.97-.507-.73H8.5v1.7zm4 0v-1.7h-.889l-.507.73 1.396.97zm-2 2.88-1.396.969 1.396 2.01 1.396-2.01-1.396-.97zm2.8-8.83a2.8 2.8 0 0 1-2.8 2.8v3.4a6.2 6.2 0 0 0 6.2-6.2h-3.4zm-2.8-2.8a2.8 2.8 0 0 1 2.8 2.8h3.4a6.2 6.2 0 0 0-6.2-6.2v3.4zm-2.8 2.8a2.8 2.8 0 0 1 2.8-2.8V.35a6.2 6.2 0 0 0-6.2 6.2h3.4zm2.8 2.8a2.8 2.8 0 0 1-2.8-2.8H4.3a6.2 6.2 0 0 0 6.2 6.2v-3.4zM4.2 18.5a4.3 4.3 0 0 1 4.3-4.3v-3.4a7.7 7.7 0 0 0-7.7 7.7h3.4zm0 2.5v-2.5H.8V21h3.4zm-.7-.7a.7.7 0 0 1 .7.7H.8a2.7 2.7 0 0 0 2.7 2.7v-3.4zm14 0h-14v3.4h14v-3.4zm-.7.7a.7.7 0 0 1 .7-.7v3.4a2.7 2.7 0 0 0 2.7-2.7h-3.4zm0-2.5V21h3.4v-2.5h-3.4zm-4.3-4.3a4.3 4.3 0 0 1 4.3 4.3h3.4a7.7 7.7 0 0 0-7.7-7.7v3.4zm-.604 2.149 2-2.879-2.792-1.94-2 2.88 2.792 1.939zM7.104 13.47l2 2.879 2.792-1.94-2-2.879-2.792 1.94z" fill="#D5E0F2" mask="url(#b)"/></g><path d="M16 11h7m-3.5-3.5v7" stroke="#D5E0F2" stroke-width="1.7"/><defs><filter id="a" x="-5.5" y="-5.949" width="32" height="35.95" filterUnits="userSpaceOnUse" color-interpolation-filters="sRGB"><feFlood flood-opacity="0" result="BackgroundImageFix"/><feGaussianBlur in="BackgroundImageFix" stdDeviation="4"/><feComposite in2="SourceAlpha" operator="in" result="effect1_backgroundBlur_2584_236"/><feBlend in="SourceGraphic" in2="effect1_backgroundBlur_2584_236" result="shape"/></filter></defs></svg>