<svg width="28" height="28" fill="none" xmlns="http://www.w3.org/2000/svg"><path fill-rule="evenodd" clip-rule="evenodd" d="M25.018 5.763a2 2 0 0 1 2 2v15.528a2 2 0 0 1-2 2H2.982a2 2 0 0 1-2-2V7.763a2 2 0 0 1 2-2h4.262a2 2 0 0 0 1.494-.67l1.41-1.587a2 2 0 0 1 1.495-.672h4.714a2 2 0 0 1 1.494.671l1.41 1.587a2 2 0 0 0 1.495.671h4.262zM11.723 9.585a5.907 5.907 0 0 1 2.186-.417c1.719 0 3.27.733 4.341 1.903V9.918h1.5v5.001h-1.5v-.005c-.002-2.332-1.932-4.245-4.34-4.245-.58 0-1.13.11-1.633.31l-.554-1.394zM8.25 19.919v-5h1.5c0 2.334 1.93 4.25 4.34 4.25.58 0 1.13-.111 1.633-.31l.554 1.393a5.908 5.908 0 0 1-2.186.417 5.873 5.873 0 0 1-4.341-1.903v1.153h-1.5z" fill="#fff"/></svg>