<svg width="28" height="28" fill="none" xmlns="http://www.w3.org/2000/svg"><g filter="url(#a)"><circle cx="14" cy="14" r="12" fill="#fff"/></g><path fill-rule="evenodd" clip-rule="evenodd" d="M10.667 10a3.333 3.333 0 0 1 5.937-2.08l-5.872 7.073a3.345 3.345 0 0 1-.065-.66V10zM9.63 16.321a4.782 4.782 0 0 1-.43-1.988v-1H8.133v1c0 1.047.275 2.03.755 2.881l.742-.893zm1.283 3.002.69-.83a4.8 4.8 0 0 0 7.198-4.16v-1h1.066v1a5.867 5.867 0 0 1-5.334 5.843V22h-1.066v-1.824a5.831 5.831 0 0 1-2.554-.853zm1.646-1.983 4.774-5.751v2.744a3.333 3.333 0 0 1-4.774 3.007z" fill="#E6395C"/><path d="m9.423 18.845 8.36-10.067" stroke="#E6395C" stroke-width="1.067" stroke-linecap="square" stroke-linejoin="round"/><defs><filter id="a" x="0" y="0" width="28" height="28" filterUnits="userSpaceOnUse" color-interpolation-filters="sRGB"><feFlood flood-opacity="0" result="BackgroundImageFix"/><feColorMatrix in="SourceAlpha" values="0 0 0 0 0 0 0 0 0 0 0 0 0 0 0 0 0 0 127 0" result="hardAlpha"/><feOffset/><feGaussianBlur stdDeviation="1"/><feComposite in2="hardAlpha" operator="out"/><feColorMatrix values="0 0 0 0 0 0 0 0 0 0 0 0 0 0 0 0 0 0 0.25 0"/><feBlend in2="BackgroundImageFix" result="effect1_dropShadow_1741_10678"/><feBlend in="SourceGraphic" in2="effect1_dropShadow_1741_10678" result="shape"/></filter></defs></svg>