<svg width="20" height="20" fill="none" xmlns="http://www.w3.org/2000/svg"><g opacity=".8"><path fill-rule="evenodd" clip-rule="evenodd" d="M5.833 5A4.167 4.167 0 0 1 13.7 3.083l-7.503 9.039a4.152 4.152 0 0 1-.364-1.705V5zm-.772 8.49a5.79 5.79 0 0 1-.878-3.073v-1.25h-1.7v1.25c0 1.659.538 3.192 1.448 4.435l1.13-1.361zm2.011 3.852 1.15-1.385a5.817 5.817 0 0 0 7.595-5.54v-1.25h1.7v1.25a7.518 7.518 0 0 1-6.684 7.47V20H9.167v-2.112a7.468 7.468 0 0 1-2.095-.546zm2.326-2.802 4.769-5.745v1.622a4.167 4.167 0 0 1-4.77 4.123z" fill="#D5E0F2"/><path d="M5.041 16.654 15.325 4.27" stroke="#D5E0F2" stroke-width="1.7" stroke-linecap="round" stroke-linejoin="round"/></g></svg>