<svg width="28" height="28" fill="none" xmlns="http://www.w3.org/2000/svg"><g filter="url(#a)"><circle cx="14" cy="14" r="12" fill="#fff"/></g><path fill-rule="evenodd" clip-rule="evenodd" d="M15.812 22.538c4.716-4.715 4.716-12.36 0-17.076l-1.767 1.767a9.575 9.575 0 0 1 0 13.541l1.767 1.768z" fill="#1C66E5"/><path fill-rule="evenodd" clip-rule="evenodd" d="M12.188 19.136a7.264 7.264 0 0 0 0-10.273l-1.768 1.768a4.764 4.764 0 0 1 0 6.737l1.768 1.768zM9.121 16.07a2.927 2.927 0 0 0 0-4.14l-2.018 2.018a.073.073 0 0 1 0 .103l2.018 2.018z" fill="#1C66E5"/><defs><filter id="a" x="0" y="0" width="28" height="28" filterUnits="userSpaceOnUse" color-interpolation-filters="sRGB"><feFlood flood-opacity="0" result="BackgroundImageFix"/><feColorMatrix in="SourceAlpha" values="0 0 0 0 0 0 0 0 0 0 0 0 0 0 0 0 0 0 127 0" result="hardAlpha"/><feOffset/><feGaussianBlur stdDeviation="1"/><feComposite in2="hardAlpha" operator="out"/><feColorMatrix values="0 0 0 0 0 0 0 0 0 0 0 0 0 0 0 0 0 0 0.25 0"/><feBlend in2="BackgroundImageFix" result="effect1_dropShadow_124_647"/><feBlend in="SourceGraphic" in2="effect1_dropShadow_124_647" result="shape"/></filter></defs></svg>