<svg width="28" height="28" fill="none" xmlns="http://www.w3.org/2000/svg"><path d="M.761 9.332C.001 7.134.963 4.773 2.833 3.39 4.252 2.343 5.676 1.285 6.49.681a.912.912 0 0 1 1.24.141l4.429 5.21c.29.34.29.841 0 1.182l-2.716 3.198a.893.893 0 0 0-.093 1.034 19.946 19.946 0 0 0 3.151 4.048 19.62 19.62 0 0 0 4.064 3.137.895.895 0 0 0 1.033-.094l3.186-2.702a.913.913 0 0 1 1.181 0l5.214 4.431c.366.311.429.852.143 1.238l-2.727 3.69c-1.372 1.855-3.714 2.798-5.895 2.047a28.865 28.865 0 0 1-11.04-6.908A28.855 28.855 0 0 1 .761 9.332z" fill="#12B969"/></svg>