<svg width="30" height="30" fill="none" xmlns="http://www.w3.org/2000/svg"><g clip-path="url(#a)"><path d="M4.162 5.677C2.58 7.258 1.967 9.608 2.874 11.652a32.422 32.422 0 0 0 6.733 9.793 32.423 32.423 0 0 0 9.793 6.733c2.044.907 4.394.293 5.975-1.288l2.543-2.543a1.5 1.5 0 0 0-.073-2.19l-4.808-4.207a1.5 1.5 0 0 0-2.048.068l-2.131 2.131a.736.736 0 0 1-.932.095 26.385 26.385 0 0 1-3.9-3.218 26.385 26.385 0 0 1-3.218-3.9.736.736 0 0 1 .095-.932l2.13-2.13a1.5 1.5 0 0 0 .069-2.05L8.895 3.208a1.5 1.5 0 0 0-2.19-.073L4.162 5.677z" fill="#fff"/></g><defs><clipPath id="a"><path fill="#fff" d="M0 0h30v30H0z"/></clipPath></defs></svg>