<svg width="26" height="26" fill="none" xmlns="http://www.w3.org/2000/svg"><path fill-rule="evenodd" clip-rule="evenodd" d="M0 1a1 1 0 0 1 1-1h24a1 1 0 0 1 1 1v24a1 1 0 0 1-1 1H1a1 1 0 0 1-1-1V1zm13 13a4.179 4.179 0 1 0 0-8.357A4.179 4.179 0 0 0 13 14zm-1.857 1.346a5.571 5.571 0 0 0-5.572 5.571v2.25a1 1 0 0 0 1 1H19.43a1 1 0 0 0 1-1v-2.25a5.571 5.571 0 0 0-5.572-5.571L13 18.019l-1.857-2.673zm-9.75-7.31 6.643-6.643h2.232l-8.875 8.875V8.036zm0 12.232v-2.233l6.642-6.641L9.15 12.51l-7.758 7.758zm23.214-5.447v2.233l-2.473 2.473-1.116-1.116 3.59-3.59zm0-10v2.233l-7.092 7.092-1.116-1.116 8.208-8.209zm-4.339-3.428-3.895 3.895-1.117-1.116 2.78-2.78h2.232z" fill="#000" style="fill:#000;fill-opacity:1"/></svg>