<svg width="28" height="28" fill="none" xmlns="http://www.w3.org/2000/svg"><path fill-rule="evenodd" clip-rule="evenodd" d="M1 2a1 1 0 0 1 1-1h24a1 1 0 0 1 1 1v24a1 1 0 0 1-1 1H2a1 1 0 0 1-1-1V2zm14.653 14.801a4.18 4.18 0 1 0-3.306 0h-.204a5.571 5.571 0 0 0-5.572 5.572v2.25a1 1 0 0 0 1 1H20.43a1 1 0 0 0 1-1v-2.25a5.571 5.571 0 0 0-5.572-5.572h-.204zm-13.26-9.18L7.62 2.393h2.232l-7.46 7.46V7.621zm0 8.13v-2.232L13.518 2.393h2.233L2.393 15.75zm0 5.898v-2.233l5.459-5.459c.062.626.217 1.224.452 1.78L2.393 21.65zM16.398 7.644a6.14 6.14 0 0 0-1.78-.452l4.798-4.8h2.233l-5.251 5.252zM2.84 24.867l1.731-1.732V25c0 .118.007.234.02.348l-.258.258a1.996 1.996 0 0 1-1.493-.739zM18.549 9.158c.36.393.672.833.923 1.31l6.134-6.135a1.996 1.996 0 0 0-.739-1.493l-6.319 6.318zm.97 6.963.125.071 5.963-5.963V7.997l-5.43 5.43a6.149 6.149 0 0 1-.659 2.694zm2.12 1.741c.346.409.65.854.903 1.33l3.065-3.065v-2.232l-3.967 3.967zm1.79 4.888v1.453l2.178-2.178v-2.233l-2.215 2.215c.024.244.037.492.037.743z" fill="#fff"/></svg>