<svg width="28" height="28" fill="none" xmlns="http://www.w3.org/2000/svg"><mask id="a" fill="#fff"><path fill-rule="evenodd" clip-rule="evenodd" d="M9.952 23.334h8.881a1 1 0 0 0 1-1V11.43L9.952 23.334zM21.364 9.585l1.626-1.958 2.42-1.13a1 1 0 0 1 1.423.907v13.193a1 1 0 0 1-1.423.906l-2.952-1.378-.516-.24a1 1 0 0 1-.578-.907V9.585zm-3.5-4.918L2.367 23.334h-.201a1 1 0 0 1-1-1V5.667a1 1 0 0 1 1-1h15.696zM5.833 11.35h4.082v-1.7H5.833v1.7z"/></mask><path fill-rule="evenodd" clip-rule="evenodd" d="M9.952 23.334h8.881a1 1 0 0 0 1-1V11.43L9.952 23.334zM21.364 9.585l1.626-1.958 2.42-1.13a1 1 0 0 1 1.423.907v13.193a1 1 0 0 1-1.423.906l-2.952-1.378-.516-.24a1 1 0 0 1-.578-.907V9.585zm-3.5-4.918L2.367 23.334h-.201a1 1 0 0 1-1-1V5.667a1 1 0 0 1 1-1h15.696zM5.833 11.35h4.082v-1.7H5.833v1.7z" fill="#fff" style="fill:#fff;fill-opacity:1"/><path d="m9.952 23.334-1.308-1.086-2.313 2.786h3.62v-1.7zm9.881-11.904h1.7V6.72l-3.008 3.624 1.308 1.086zm3.157-3.803-.72-1.54-.345.161-.244.294 1.309 1.085zm-1.626 1.958L20.056 8.5l-.392.472v.614h1.7zm4.046-3.087.72 1.54-.72-1.54zm1.423.906h1.7-1.7zm0 13.193h-1.7 1.7zm-1.423.906-.719 1.54.72-1.54zm-2.952-1.378.72-1.54-.72 1.54zm-.516-.24-.72 1.54.72-1.54zm-.578-.907h-1.7 1.7zM2.368 23.334v1.7h.798l.51-.614-1.308-1.086zM17.863 4.667l1.308 1.086 2.313-2.786h-3.62v1.7zM9.916 11.35v1.7h1.7v-1.7h-1.7zm-4.083 0h-1.7v1.7h1.7v-1.7zm4.083-1.7h1.7v-1.7h-1.7v1.7zm-4.083 0v-1.7h-1.7v1.7h1.7zm13 11.984H9.952v3.4h8.881v-3.4zm-.7.7a.7.7 0 0 1 .7-.7v3.4a2.7 2.7 0 0 0 2.7-2.7h-3.4zm0-10.904v10.904h3.4V11.43h-3.4zm.392-1.086L8.644 22.248l2.616 2.171 9.881-11.903-2.616-2.172zm3.157-3.802-1.626 1.957 2.616 2.172 1.626-1.958-2.616-2.171zm3.01-1.585-2.421 1.13 1.438 3.08 2.42-1.129-1.438-3.08zm3.841 2.447c0-1.976-2.052-3.282-3.842-2.447l1.438 3.081a.7.7 0 0 1-.996-.634h3.4zm0 13.193V7.404h-3.4v13.193h3.4zm-3.842 2.447c1.79.835 3.842-.472 3.842-2.447h-3.4a.7.7 0 0 1 .996-.635l-1.438 3.082zm-2.952-1.378 2.952 1.378 1.438-3.082-2.952-1.377-1.438 3.08zm-.516-.241.516.24 1.438-3.08-.517-.241-1.437 3.08zm-1.559-2.447a2.7 2.7 0 0 0 1.559 2.447l1.438-3.081a.7.7 0 0 1 .403.634h-3.4zm0-9.393v9.393h3.4V9.585h-3.4zM3.676 24.42 19.171 5.753 16.555 3.58 1.06 22.248l2.616 2.171zm-1.308-2.785h-.201v3.4h.201v-3.4zm-.201 0a.7.7 0 0 1 .7.7h-3.4a2.7 2.7 0 0 0 2.7 2.7v-3.4zm.7.7V5.667h-3.4v16.667h3.4zm0-16.667a.7.7 0 0 1-.7.7v-3.4a2.7 2.7 0 0 0-2.7 2.7h3.4zm-.7.7h15.696v-3.4H2.166v3.4zm7.75 3.283H5.832v3.4h4.083v-3.4zm-1.7 0v1.7h3.4v-1.7h-3.4zm-2.384 1.7h4.083v-3.4H5.833v3.4zm1.7 0v-1.7h-3.4v1.7h3.4z" fill="#fff" style="fill:#fff;fill-opacity:1" mask="url(#a)"/><path d="M4.563 25.269 22.14 4.084" stroke="#fff" style="stroke:#fff;stroke-opacity:1" stroke-width="2" stroke-linecap="square" stroke-linejoin="round"/></svg>