<svg width="30" height="30" fill="none" xmlns="http://www.w3.org/2000/svg"><path fill-rule="evenodd" clip-rule="evenodd" d="M8.75 7.5a6.25 6.25 0 0 1 11.133-3.902L8.873 16.862a6.28 6.28 0 0 1-.123-1.237V7.5zM6.806 19.352A8.967 8.967 0 0 1 6 15.625V13.75H4v1.875c0 1.963.514 3.806 1.416 5.402l1.39-1.675zm2.406 5.629 1.292-1.558A9 9 0 0 0 24 15.625v-1.874h2v1.875c0 5.738-4.393 10.45-10 10.955V30h-2v-3.42a10.934 10.934 0 0 1-4.788-1.6zm3.086-3.719 8.952-10.784v5.147a6.25 6.25 0 0 1-8.952 5.637z" fill="#fff" style="fill:#fff;fill-opacity:1"/><path d="M6.419 24.084 22.094 5.209" stroke="#fff" style="stroke:#fff;stroke-opacity:1" stroke-width="2" stroke-linecap="square" stroke-linejoin="round"/></svg>