<svg width="28" height="26" fill="none" xmlns="http://www.w3.org/2000/svg"><path fill-rule="evenodd" clip-rule="evenodd" d="m20.135.373.866.5C25.183 3.294 28 7.818 28 13c0 5.183-2.817 9.707-7 12.127l-.865.5-1.001-1.731.865-.5C23.59 21.318 26 17.44 26 13s-2.411-8.319-6-10.395l-.866-.5L20.135.372zm-6.49 1.016a1.071 1.071 0 0 1 1.71.86V23.75c0 .881-1.003 1.386-1.71.86l-6.65-4.945a1.071 1.071 0 0 0-.639-.211H1.252c-.592 0-1.072-.48-1.072-1.072V7.634c0-.59.478-1.07 1.068-1.071l5.11-.017c.23 0 .452-.075.636-.211l6.65-4.946zm5.91 4.78-.831-.556-1.111 1.663.832.556C19.937 8.828 21 10.742 21 13c0 2.259-1.063 4.172-2.555 5.168l-.832.556 1.11 1.663.832-.555C21.65 18.432 23 15.869 23 13c0-2.869-1.35-5.433-3.445-6.832z" fill="#2E333D"/></svg>