<svg width="30" height="30" fill="none" xmlns="http://www.w3.org/2000/svg"><path fill-rule="evenodd" clip-rule="evenodd" d="m10.36 22.842 4.235 3.56c.697.587 1.76.091 1.76-.82V15.62l-5.995 7.223zm13.356-16.09 1.285-1.548A13.955 13.955 0 0 1 29 15c0 5.183-2.817 9.707-7 12.127l-.865.5-1.001-1.731.865-.5C24.59 23.318 27 19.44 27 15c0-3.194-1.248-6.097-3.284-8.248zm-3.278 3.95 1.288-1.553C23.14 10.613 24 12.71 24 15c0 2.869-1.35 5.433-3.445 6.832l-.831.555-1.11-1.663.83-.556C20.938 19.172 22 17.258 22 15c0-1.716-.613-3.232-1.562-4.299zm-4.082-4.22L3.928 21.456H2.252c-.592 0-1.072-.48-1.072-1.072V9.635c0-.591.478-1.07 1.069-1.072l6.073-.017c.251 0 .494-.09.687-.251l5.586-4.697c.697-.586 1.76-.091 1.76.82v2.065z" fill="#fff"/><path d="M4.564 25.268 22.14 4.084" stroke="#fff" stroke-width="2" stroke-linecap="square" stroke-linejoin="round"/></svg>