<svg width="20" height="19" fill="none" xmlns="http://www.w3.org/2000/svg"><path fill-rule="evenodd" clip-rule="evenodd" d="M10.302 2.09a7.164 7.164 0 0 0-8.287 7.539l-1.978.358A9.274 9.274 0 0 1 0 9.162C0 4.102 4.104 0 9.167 0c.508 0 1.007.041 1.493.12l-.358 1.97zm-.239 1.322A5.832 5.832 0 0 0 3.338 9.4l1.998-.364a3.832 3.832 0 0 1 4.37-3.655l.357-1.97zM8.181 7.218l10.445-.005a.47.47 0 0 1 .457.57l-2.287 10.186a.467.467 0 0 1-.823.19l-2.32-2.896C9.61 18.498 3.71 17.846.473 13.806c-.138-.172.049-.408.259-.339a8.44 8.44 0 0 0 7.94-1.42l1.463-1.172-2.32-2.896a.468.468 0 0 1 .365-.761z" fill="#fff" style="fill:#fff;fill-opacity:1"/></svg>