<svg width="16" height="16" fill="none" xmlns="http://www.w3.org/2000/svg"><path d="M1.536 6.682c-.33-.955.088-1.98.9-2.581.617-.456 1.236-.916 1.589-1.178a.396.396 0 0 1 .539.062l1.925 2.264a.396.396 0 0 1 0 .513l-1.18 1.39a.388.388 0 0 0-.041.45 8.667 8.667 0 0 0 1.37 1.758c.57.57 1.12.982 1.765 1.364a.389.389 0 0 0 .45-.041l1.383-1.174a.397.397 0 0 1 .514 0l2.266 1.925c.159.135.186.37.062.538l-1.185 1.604c-.596.806-1.614 1.216-2.562.89a12.545 12.545 0 0 1-4.797-3.003 12.54 12.54 0 0 1-2.998-4.78z" fill="#1C66E5"/><path fill-rule="evenodd" clip-rule="evenodd" d="M8.889 2.133a.356.356 0 0 0-.356.356v3.685c0 .196.16.355.356.355h3.685c.196 0 .355-.159.355-.355v-.186a.32.32 0 0 1 .455-.29l.687.32a.356.356 0 0 0 .506-.322v-2.73c0-.26-.27-.432-.506-.322l-.687.32a.32.32 0 0 1-.455-.29V2.49a.356.356 0 0 0-.355-.356H8.889z" fill="#1C66E5"/></svg>