<svg width="100" height="100" fill="none" xmlns="http://www.w3.org/2000/svg"><path fill="url(#a)" d="M-5-5h110v110H-5z"/><path fill-rule="evenodd" clip-rule="evenodd" d="M25 71.5c0-10.264 7.93-18.676 17.998-19.443.496-.038.997-.057 1.502-.057h13c.505 0 1.006.02 1.501.057C69.07 52.824 77 61.236 77 71.5v6.783H25V71.5zM44.5 45.605a14.075 14.075 0 0 1-.205-.104c-4.704-2.431-7.92-7.34-7.92-13.001 0-8.077 6.548-14.625 14.625-14.625S65.625 24.423 65.625 32.5c0 5.66-3.216 10.57-7.92 13-.068.036-.136.07-.205.105a14.565 14.565 0 0 1-6.5 1.52c-2.335 0-4.542-.547-6.5-1.52z" fill="#D5E0F2"/><defs><linearGradient id="a" x1="73.5" y1="-5" x2="5" y2="98.5" gradientUnits="userSpaceOnUse"><stop stop-color="#7C859B"/><stop offset="1" stop-color="#747C90"/></linearGradient></defs></svg>