<svg xmlns="http://www.w3.org/2000/svg" fill="none" viewBox="0 0 16 16" class="design-iconfont"><path fill-rule="evenodd" clip-rule="evenodd" d="M4.828 12.476c.754.429 1.61.722 2.505.82V15c0 .184.15.334.334.334h.666c.184 0 .334-.15.334-.334v-1.703C11.54 12.98 14 10.666 14 8.273v-.592a.333.333 0 0 0-.333-.333H13a.333.333 0 0 0-.333.333v.592l-.004.12c-.095 1.76-2.265 3.605-4.659 3.607h-.008c-.77 0-1.519-.192-2.181-.51l-.987.986zm2.004-2.004c.364.12.758.186 1.168.186 1.827 0 3.333-1.303 3.333-2.932V5.97l-4.501 4.502zm4.075-8.317-6.17 6.17a2.602 2.602 0 0 1-.067-.468l-.003-.131V3.59C4.667 1.961 6.173.658 8 .658c1.24 0 2.333.601 2.907 1.497zM3.625 9.437l-.979.978c-.384-.625-.615-1.307-.643-1.999L2 8.273v-.608c0-.182.147-.33.33-.333l.664-.007a.333.333 0 0 1 .336.332l.003.616c0 .389.104.784.292 1.164z" fill="#fff"/><rect x=".61" y="13.451" width="19.013" height="1.5" rx=".75" transform="rotate(-45 .61 13.451)" fill="#FE3C44"/></svg>